<?xml version="1.0" encoding="utf-8"?>
<!-- Generator: Adobe Illustrator 22.0.0, SVG Export Plug-In . SVG Version: 6.00 Build 0)  -->
<svg version="1.1" id="Layer_1" xmlns="http://www.w3.org/2000/svg" xmlns:xlink="http://www.w3.org/1999/xlink" x="0px" y="0px"
	 viewBox="0 0 25 10.8" style="enable-background:new 0 0 25 10.8;" xml:space="preserve">
<style type="text/css">
	.st0{fill:#EEB933;}
</style>
<title>logo_black1</title>
<g>
	<path class="st0" d="M8.1,3.7H0V2.3h5.1c0.1,0,0.2,0,0.3-0.1c0.1,0,0.2-0.1,0.2-0.2c0-0.2-0.1-0.3-0.4-0.5C4.9,1.5,4.6,1.5,4.4,1.5
		c-0.2,0-0.4,0-0.6,0.1C3.6,1.6,3.4,1.6,3.2,1.7c-0.4,0-0.7-0.1-1-0.2C1.8,1.3,1.6,1,1.6,0.8c0,0,0,0,0-0.1l0.1-0.2L3.2,0
		c0,0.4,0.4,0.8,0.8,0.8c0,0,0,0,0,0c0.2,0,0.4,0,0.8,0c0.3,0,0.6,0,0.8,0c0.7,0,1.1,0.3,1.1,0.8c0,0.3-0.2,0.5-0.6,0.8h2V3.7z
		 M6.3,10C5.2,9.5,4.6,9.2,4.5,9.2c-0.6-0.3-1.3-0.4-2-0.5c-0.3,0-0.6,0-0.9,0.1L1.2,6.9C1.6,7.1,2,7.2,2.5,7.2
		c0.5,0,1.1-0.1,1.6-0.3C4.7,6.6,5,6.2,5,5.8c0-0.3-0.2-0.5-0.7-0.5c-0.8,0-1.5,0.5-1.7,1.3L1.2,5.6c0.6-0.9,1.6-1.5,2.7-1.5
		c1.6,0,2.4,0.5,2.4,1.4c0,0.7-0.7,1.4-2,2.1c0.5,0.3,1,0.7,1.4,1.1C6,9,6.4,9.4,7.1,10L6.3,10z"/>
	<path class="st0" d="M11.7,3.7c-0.7,0-1.4,0.2-2,0.6C9.2,4.7,8.9,5.3,8.9,6c0,0.4,0.1,0.8,0.3,1.2c0.2,0.4,0.5,0.6,0.9,0.6
		c0.1,0,0.2,0,0.3,0l0.2-0.1l1.1,1.4c-0.3,0.4-0.8,0.7-1.3,0.7C9.7,9.6,9,9.1,8.6,8.4C8.2,7.7,7.9,6.9,8,6.1c0-0.9,0.4-1.8,1.1-2.4
		H7.1V2.3h5.6v1.4H11.7z"/>
	<path class="st0" d="M14.9,9.5c-0.4,0-0.8-0.1-1.1-0.4c-0.4-0.2-0.6-0.6-0.6-1.1V3.7h-1.3V2.3h5.4v1.4h-2.7v1.4
		c0.2,0.1,0.4,0.2,0.7,0.2c0.4,0,0.7-0.2,1-0.4c0.2-0.2,0.5-0.3,0.7-0.4c0.3,0,0.6,0.2,0.8,0.6C17.9,5.3,18,5.6,18,5.9
		c0,0.9-0.4,1.7-1,2.3C16.5,9,15.8,9.4,14.9,9.5z M16.9,6l-0.2-0.1c-0.2,0.1-0.4,0.3-0.6,0.4c-0.2,0.1-0.4,0.2-0.6,0.3
		c-0.3,0-0.6-0.1-0.8-0.3l-0.1,0c0,0.1,0,0.2,0,0.2c0,0.1,0,0.6,0.1,1.5c0.2,0.2,0.4,0.3,0.7,0.4c0.4,0,0.7-0.3,1.1-0.8
		C16.8,7.2,17,6.8,17,6.3C17,6.2,17,6.1,16.9,6z"/>
	<path class="st0" d="M25,3.7h-6v0.9c0.1,0.2,0.3,0.3,0.5,0.3c0.3,0,0.6-0.1,0.9-0.3c0.2-0.2,0.4-0.3,0.7-0.3c0.2,0,0.5,0.2,0.7,0.6
		c0.2-0.1,0.5-0.2,0.6-0.3c0.1-0.1,0.2-0.1,0.4-0.1c0.2,0,0.5,0.2,0.7,0.6c0.2,0.3,0.3,0.6,0.3,1c0,0.6-0.1,1.3-0.4,1.8
		c-0.4,0.5-0.9,1-1.5,1.4c0.5,0.2,0.9,0.4,1.3,0.7c0.2,0.1,0.5,0.5,1.1,0.9h-0.7c-0.7-0.4-1.5-0.5-2.2-0.6c-0.6,0-1.2,0.1-1.8,0.3
		C19.3,10,19.2,9.5,19,9h0.4c0.9,0,1.7-0.3,2.4-0.8C22.6,7.7,23,7,23,6.1c0-0.3-0.2-0.4-0.5-0.4c-0.2,0-0.4,0.1-0.5,0.3l0,0.1
		c0,0,0,0,0,0.1c0,0.7-0.4,1.2-1,1.5c-0.5,0.4-1.1,0.6-1.8,0.6c-0.8,0-1.4-0.5-1.6-1.2V3.7h-1.4V2.3H25V3.7z M20.8,5.9
		c-0.4,0.3-0.9,0.5-1.3,0.5c-0.2,0-0.3-0.1-0.5-0.2v0.9c0.1,0.1,0.1,0.2,0.2,0.2c0.1,0,0.2,0,0.3,0.1c0.4-0.1,0.7-0.2,1-0.5
		c0.4-0.3,0.6-0.6,0.6-0.8C21.2,6,21.1,5.9,20.8,5.9z"/>
</g>
</svg>
