<?xml version="1.0" encoding="utf-8"?>
<!-- Generator: Adobe Illustrator 22.0.0, SVG Export Plug-In . SVG Version: 6.00 Build 0)  -->
<svg version="1.1" id="Layer_1" xmlns="http://www.w3.org/2000/svg" xmlns:xlink="http://www.w3.org/1999/xlink" x="0px" y="0px"
	 viewBox="0 0 343.4 376.8" style="enable-background:new 0 0 343.4 376.8;" xml:space="preserve">
<style type="text/css">
	.st0{fill:#966C47;}
	.st1{fill:#D6D6D6;}
	.st2{fill:#FFFFFF;}
	.st3{fill:#FF322F;}
	.st4{fill:#376D32;}
	.st5{fill:#34A32E;}
	.st6{fill:#3A2A2A;}
	.st7{fill:none;stroke:#376D32;stroke-width:0.7087;stroke-linecap:round;stroke-linejoin:round;}
	.st8{fill:#DBAD46;}
	.st9{fill:#539DCE;}
	.st10{fill:#3D3839;}
	.st11{fill:#4D494A;}
	.st12{fill:url(#SVGID_1_);}
	.st13{fill:url(#SVGID_2_);}
	.st14{fill:#F8B79B;}
	.st15{fill:#784E28;}
	.st16{fill:#794B29;}
	.st17{fill:none;stroke:#EF997B;stroke-width:1.4173;stroke-linecap:round;stroke-linejoin:round;}
	.st18{fill:url(#SVGID_3_);}
	.st19{fill:url(#SVGID_4_);}
	.st20{fill:#D82622;}
	.st21{fill:#ECECEC;}
	.st22{fill:none;stroke:#000000;stroke-width:2.126;stroke-linecap:round;stroke-miterlimit:10;}
	.st23{fill:#347DA5;}
	.st24{fill:#64AED8;}
	.st25{fill:#DC143C;}
	.st26{fill:none;stroke:#DD7373;stroke-width:7.0866;stroke-linecap:round;stroke-miterlimit:10;}
	.st27{fill:#232F3E;}
</style>
<title>Asset 2</title>
<path class="st0" d="M247.5,124.6c-8.7-11.6-25.1-14-36.8-5.4c-11.6,8.7-14,25.1-5.4,36.8c8.7,11.6,25.1,14,36.8,5.4l0,0
	C253.7,152.7,256.1,136.2,247.5,124.6L247.5,124.6z"/>
<path class="st1" d="M244,127.2c-7.2-9.7-20.9-11.7-30.6-4.5c-9.7,7.2-11.7,20.9-4.5,30.6c7.2,9.7,20.9,11.7,30.6,4.5l0,0
	C249.2,150.6,251.2,136.9,244,127.2z"/>
<path class="st2" d="M208.8,127.3l12.3,34.2c1.7,0.4,3.4,0.6,5.1,0.6l-13.9-38.6C211,124.7,209.8,125.9,208.8,127.3z"/>
<path class="st2" d="M231.7,161.6c2.2-0.6,4.4-1.5,6.4-2.7l-14.5-40.3c-2.3,0.3-4.5,1-6.6,2L231.7,161.6z"/>
<rect x="241.8" y="158.1" transform="matrix(0.8021 -0.5972 0.5972 0.8021 -49.8454 178.4994)" class="st0" width="5.2" height="12.7"/>
<path class="st3" d="M245.3,168.5l2.7-2c1.7-1.3,4.1-0.9,5.4,0.8l0,0l32.7,44c1.3,1.7,0.9,4.1-0.8,5.4l-2.7,2
	c-1.7,1.3-4.1,0.9-5.4-0.8l0,0l-32.7-44C243.3,172.1,243.6,169.7,245.3,168.5L245.3,168.5z"/>
<path class="st4" d="M253.8,180.5l18.8,12.2c1,0.6,1.2,1.9,0.6,2.9l-17.9,27.7c-0.6,1-1.9,1.2-2.9,0.6l0,0l-18.8-12.2
	c-1-0.6-1.2-1.9-0.6-2.9l0,0l17.9-27.7C251.6,180.2,252.9,179.9,253.8,180.5L253.8,180.5z"/>
<path class="st5" d="M251.4,179l18.8,12.2c1,0.6,1.2,1.9,0.6,2.9l0,0l-17.9,27.7c-0.6,1-1.9,1.2-2.9,0.6l0,0l-18.8-12.2
	c-1-0.6-1.2-1.9-0.6-2.9l0,0l17.9-27.7C249.2,178.6,250.5,178.3,251.4,179L251.4,179L251.4,179z"/>
<rect x="251.6" y="181.8" transform="matrix(0.544 -0.8391 0.8391 0.544 -44.2288 302.6699)" class="st6" width="9.6" height="20.5"/>
<rect x="242.8" y="192.6" transform="matrix(0.544 -0.8391 0.8391 0.544 -51.635 294.0797)" class="st7" width="3.9" height="3.9"/>
<rect x="247.5" y="195.6" transform="matrix(0.544 -0.8391 0.8391 0.544 -51.9954 299.3519)" class="st7" width="3.9" height="3.9"/>
<rect x="252.1" y="198.6" transform="matrix(0.544 -0.8391 0.8391 0.544 -52.4414 304.6003)" class="st7" width="3.9" height="3.9"/>
<rect x="256.8" y="201.7" transform="matrix(0.544 -0.8391 0.8391 0.544 -52.8996 309.9521)" class="st7" width="3.9" height="3.9"/>
<rect x="239.9" y="197.1" transform="matrix(0.544 -0.8391 0.8391 0.544 -56.7494 293.7419)" class="st7" width="3.9" height="3.9"/>
<rect x="244.5" y="200.2" transform="matrix(0.544 -0.8391 0.8391 0.544 -57.2027 299.0025)" class="st7" width="3.9" height="3.9"/>
<rect x="249.2" y="203.1" transform="matrix(0.544 -0.8391 0.8391 0.544 -57.5557 304.2626)" class="st7" width="3.9" height="3.9"/>
<rect x="236.9" y="201.7" transform="matrix(0.544 -0.8391 0.8391 0.544 -61.9564 293.3093)" class="st7" width="3.9" height="3.9"/>
<rect x="241.6" y="204.7" transform="matrix(0.544 -0.8391 0.8391 0.544 -62.307 298.5655)" class="st7" width="3.9" height="3.9"/>
<rect x="246.2" y="207.7" transform="matrix(0.544 -0.8391 0.8391 0.544 -62.7578 303.8221)" class="st7" width="3.9" height="3.9"/>
<rect x="234" y="206.2" transform="matrix(0.544 -0.8391 0.8391 0.544 -67.0582 292.8684)" class="st7" width="3.9" height="3.9"/>
<rect x="238.6" y="209.2" transform="matrix(0.544 -0.8391 0.8391 0.544 -67.5143 298.1329)" class="st7" width="3.9" height="3.9"/>
<rect x="243.3" y="212.2" transform="matrix(0.544 -0.8391 0.8391 0.544 -67.8719 303.4842)" class="st7" width="3.9" height="3.9"/>
<rect x="245.5" y="210.7" transform="matrix(0.544 -0.8391 0.8391 0.544 -63.1185 309.0944)" class="st7" width="14.7" height="3.9"/>
<path class="st8" d="M252.7,193l0.8-1.3l0.2-0.1l0.1,0.4l-0.7,1.1l-0.4,0.1L252.7,193z M252.8,193.6v-0.2l0.4-0.1l0.4,0.2l0.1,0.3
	l0.3-0.1l0.4,0.2l0.1,0.4h-0.2L252.8,193.6z M254.6,190h0.2l0.1,0.4l-0.7,1.1l-0.4,0.1l-0.1-0.2L254.6,190z M255.2,189.9l1.3,0.8
	v0.2l-0.4,0.1l-0.4-0.2l-0.1-0.3l-0.3,0.1l-0.4-0.2l-0.1-0.4L255.2,189.9z M254.7,194.3l-0.2,0.1l-0.1-0.4l0.7-1.1l0.4-0.1v0.2
	L254.7,194.3z M256.6,191.3l-0.8,1.3h-0.2l-0.1-0.4l0.7-1.1l0.4-0.1V191.3z"/>
<path class="st9" d="M72.7,83.3c14.6-1.9,24.4,11.4,25.3,27.9s0.3,25,0.5,41.7s-7,29-37.9,64l15,56.2l-18,1c0,0-21.6-47.8-18.3-64.5
	s15-51.4,15-51.4l-1.1-53C53.2,105.2,52.2,86,72.7,83.3z"/>
<path class="st10" d="M75.7,189.9l47.7,84.2c0,0,17.5-6.7,17-6.7s-46.5-104-46.5-104L75.7,189.9z"/>
<path class="st11" d="M98.4,153.7l-44.1,4.5c0,0-11.6,34.6-15,51.4s18.3,64.5,18.3,64.5l18-1l-15-56.2
	C90.9,182.5,98.4,170,98.4,153.7z"/>
<linearGradient id="SVGID_1_" gradientUnits="userSpaceOnUse" x1="69.1981" y1="512.7622" x2="69.1981" y2="532.6584" gradientTransform="matrix(1 0 0 -1 0 602)">
	<stop  offset="0" style="stop-color:#F8B79B"/>
	<stop  offset="0.4447" style="stop-color:#EF997B"/>
</linearGradient>
<path class="st12" d="M71.6,89.1L71.6,89.1c-2.3,0.5-4.6-1-5.1-3.3l0,0l-3.1-14.7l8.5-1.8l3,14.7C75.4,86.3,73.9,88.6,71.6,89.1
	L71.6,89.1z"/>
<linearGradient id="SVGID_2_" gradientUnits="userSpaceOnUse" x1="48.7" y1="543.3" x2="28.9747" y2="543.3" gradientTransform="matrix(1 0 0 -1 0 602)">
	<stop  offset="0" style="stop-color:#F8B79B"/>
	<stop  offset="0.4447" style="stop-color:#EF997B"/>
</linearGradient>
<circle class="st13" cx="38.8" cy="58.7" r="9.9"/>
<circle class="st14" cx="64.4" cy="51.3" r="30.3"/>
<path class="st15" d="M75.4,48.8l5.3,1.7c0,0,13.3,10.6,5.9,21.4c7.4-4.6,12.2-12.4,13.3-21c1.6-14.4-5.2-17.1-5.2-17.1H77.5
	L75.4,48.8z"/>
<path class="st15" d="M92.8,32.1c0.1-0.1,4.9-3.8,4.9-3.8l-0.6,3.8l3.5-1l-2.3,2.6l3.9,0.7c0,0-5.8,4.8-6,4.6S92.8,32.1,92.8,32.1z"
	/>
<circle class="st14" cx="84.8" cy="59.4" r="9.9"/>
<path class="st16" d="M40.8,54.6c0-0.7-0.5-1.2-1.2-1.2s-1.2,0.5-1.2,1.2s0.5,1.2,1.2,1.2S40.8,55.3,40.8,54.6L40.8,54.6z"/>
<path class="st16" d="M59,55.1c0-0.7-0.5-1.2-1.2-1.2s-1.2,0.5-1.2,1.2s0.5,1.2,1.2,1.2S59,55.8,59,55.1L59,55.1z"/>
<path class="st17" d="M48.7,54.4l-2.8,1.2c0.2,1.3,1.2,2.3,2.5,2.6"/>
<path class="st17" d="M52.7,67.1c0,0,6.9-0.8,11.9-4.8"/>
<path class="st15" d="M80.7,50.4c0,0-0.3,11.6-5.3,11.8s-1.5-7.4-2.1-12.2c0,0-34.1,2.6-39.3-19.1s24-30,33.8-19.3
	c0,0,26.8-3.5,26.8,22.1L80.7,50.4z"/>
<path class="st15" d="M36,48.7c-0.2,1.8,8.1,2.5,8.3,0.5C44.5,46.6,36.2,47,36,48.7z"/>
<path class="st15" d="M34.1,50.1c2.2-5.1,4-10.4,5.2-15.8c1.7-7.9-4.3-3.8-4.3-3.8S32,41.9,34.1,50.1"/>
<path class="st14" d="M52.1,129.1l-22,30.9c0,0,6.2,7.4,6.5,6.7s22.6-27.9,22.6-27.9L52.1,129.1z"/>
<linearGradient id="SVGID_3_" gradientUnits="userSpaceOnUse" x1="54.6357" y1="513.9256" x2="65.5139" y2="513.9256" gradientTransform="matrix(1 0 0 -1 0 602)">
	<stop  offset="0" style="stop-color:#F8B79B"/>
	<stop  offset="0.4447" style="stop-color:#EF997B"/>
</linearGradient>
<path class="st18" d="M60.5,92.8c0,0,7.5-8.7,4.2-9.3c-3.3-0.5-10,0.4-10,0.4L60.5,92.8z"/>
<linearGradient id="SVGID_4_" gradientUnits="userSpaceOnUse" x1="36.7419" y1="445.6155" x2="36.7419" y2="452.6267" gradientTransform="matrix(1 0 0 -1 0 602)">
	<stop  offset="0" style="stop-color:#F8B79B"/>
	<stop  offset="0.4447" style="stop-color:#EF997B"/>
</linearGradient>
<path class="st19" d="M34.6,155.6c-1-0.8-0.8-7.4,2.9-6S39.1,158.9,34.6,155.6z"/>
<polygon class="st20" points="75.6,273.1 77.7,287.8 41.3,287.8 57.6,274.1 "/>
<circle class="st21" cx="68.7" cy="280.4" r="4"/>
<polygon class="st20" points="123.4,274.1 112.4,287.8 124.2,287.8 145.5,280.4 140.4,267.4 "/>
<circle class="st21" cx="136.4" cy="276.4" r="4"/>
<path class="st22" d="M204.3,212.4c0,0-94.2-100.4-105.7-112.8s-26-17.7-43.9-16.4L32.5,158c-2.5,11.9-2.5,24.1,0,36"/>
<path class="st23" d="M69.6,151.5C80.3,146,90.2,121.8,89,107s-6.9,0-6.9,0l-19.5,37l-8.6-3.3l0.3,13
	C56.9,154.5,62.3,155.2,69.6,151.5z"/>
<path class="st14" d="M55.7,77c-9.5,0.6-7.5,23.9-7.3,32s0.5,36.3,7.9,39.4s24.6-17.4,29-28.8s4.9-19.6,1-22.9s-10-0.6-13.8,7.3
	s-9.3,20.4-9.3,20.4S65.9,76.4,55.7,77z"/>
<path class="st24" d="M86.3,96.8c-4-3.3-10-0.6-13.8,7.3c-0.9,1.8-1.9,3.9-2.9,6.1c4.7,4.1,9.8,7.9,15,11.2c0.3-0.6,0.5-1.1,0.7-1.7
	C89.7,108.3,90.2,100.1,86.3,96.8z"/>
<path class="st14" d="M30.9,152.9c-4.8,0.2-6.4,4.4-6.2,9.8s1.1,9.8,6.6,9.8s9.3-1.3,9.8-8.5S41.4,152.4,30.9,152.9z"/>
<path class="st25" d="M301.7,267.4h-80.8c-5.5,0-10.2-3.9-11.2-9.3l-9.2-48.2h121.7l-9.2,48.2C311.9,263.5,307.2,267.4,301.7,267.4z
	"/>
<path class="st26" d="M228.3,258.5c-5.2,0-9.6-3.7-10.6-8.8l-5.5-28.7"/>
<circle class="st11" cx="234.8" cy="277.6" r="10.2"/>
<circle class="st21" cx="234.8" cy="277.6" r="4.1"/>
<circle class="st11" cx="289.3" cy="277.6" r="10.2"/>
<circle class="st21" cx="289.3" cy="277.6" r="4.1"/>
<path class="st8" d="M255.3,194.8l0.8-1.3l0.2-0.1l0.1,0.4l-0.7,1.1l-0.4,0.1L255.3,194.8z M255.5,195.4v-0.2l0.4-0.1l0.4,0.2
	l0.1,0.3l0.3-0.1l0.4,0.2l0.1,0.4H257L255.5,195.4z M257.3,191.8h0.2l0.1,0.4l-0.7,1.1l-0.4,0.1l-0.1-0.2L257.3,191.8z M257.9,191.7
	l1.3,0.8v0.2l-0.4,0.1l-0.4-0.2l-0.1-0.3l-0.3,0.1l-0.4-0.2l-0.1-0.4L257.9,191.7z M257.3,196.1l-0.2,0.1l-0.1-0.4l0.7-1.1l0.4-0.1
	v0.2L257.3,196.1z M259.3,193.1l-0.8,1.3h-0.2l-0.1-0.4l0.7-1.1l0.4-0.1V193.1z"/>
<path class="st8" d="M257.9,196.5l0.8-1.3l0.2-0.1l0.1,0.4l-0.7,1.1l-0.4,0.1V196.5z M258.1,197v-0.2l0.4-0.1l0.4,0.2l0.1,0.3
	l0.3-0.1l0.4,0.2l0.1,0.4h-0.2L258.1,197z M259.9,193.5h0.2l0.1,0.4l-0.7,1.1l-0.4,0.1l-0.1-0.2L259.9,193.5z M260.5,193.3l1.3,0.8
	v0.2l-0.4,0.1l-0.4-0.2V194l-0.3,0.1l-0.4-0.2l-0.1-0.4L260.5,193.3z M259.9,197.7l-0.2,0.1l-0.1-0.4l0.7-1.1l0.4-0.1v0.2
	L259.9,197.7z M261.9,194.8L261,196h-0.2l-0.1-0.4l0.7-1.1l0.4-0.1L261.9,194.8z"/>
<path class="st8" d="M260.7,198.1l0.8-1.3l0.2-0.1l0.1,0.4l-0.7,1.1l-0.4,0.1V198.1z M260.8,198.7v-0.2l0.4-0.1l0.4,0.2l0.1,0.3
	l0.3-0.1l0.4,0.2l0.1,0.4h-0.2L260.8,198.7z M262.7,195.2h0.2l0.1,0.4l-0.7,1.1l-0.4,0.1l-0.1-0.2L262.7,195.2z M263.3,195l1.3,0.8
	v0.2l-0.4,0.1l-0.4-0.2l-0.1-0.3l-0.3,0.1l-0.4-0.2l-0.1-0.4L263.3,195z M262.7,199.4l-0.2,0.1l-0.1-0.4l0.7-1.1l0.4-0.1v0.2
	L262.7,199.4z M264.7,196.5l-0.8,1.3h-0.2l-0.1-0.4l0.7-1.1l0.4-0.1V196.5z"/>
<path class="st27" d="M317.1,370H27.3C15,370,5,351.5,5,328.7l0,0c0-22.8,10-41.3,22.3-41.3h289.8c12.3,0,22.3,18.5,22.3,41.3l0,0
	C339.3,351.5,329.3,370,317.1,370z"/>
</svg>
