<?xml version="1.0" encoding="utf-8"?>
<!-- Generator: Adobe Illustrator 22.0.0, SVG Export Plug-In . SVG Version: 6.00 Build 0)  -->
<svg version="1.1" id="Layer_1" xmlns="http://www.w3.org/2000/svg" xmlns:xlink="http://www.w3.org/1999/xlink" x="0px" y="0px"
	 viewBox="0 0 141.4 190.8" style="enable-background:new 0 0 141.4 190.8;" xml:space="preserve">
<style type="text/css">
	.st0{fill:#966C47;}
	.st1{fill:#D6D6D6;}
	.st2{fill:#FFFFFF;}
	.st3{fill:#FF322F;}
	.st4{fill:#376D32;}
	.st5{fill:#34A32E;}
	.st6{fill:#3A2A2A;}
	.st7{fill:none;stroke:#376D32;stroke-width:0.7087;stroke-linecap:round;stroke-linejoin:round;}
	.st8{fill:#DBAD46;}
	.st9{fill:#DC143C;}
	.st10{fill:none;stroke:#DD7373;stroke-width:7.0866;stroke-linecap:round;stroke-miterlimit:10;}
	.st11{fill:#4D494A;}
	.st12{fill:#ECECEC;}
</style>
<title>Asset 2</title>
<path class="st0" d="M56.7,18.8C48,7.2,31.6,4.8,19.9,13.4c-11.6,8.7-14,25.1-5.4,36.8c8.7,11.6,25.1,14,36.8,5.4l0,0
	C62.9,46.9,65.3,30.4,56.7,18.8L56.7,18.8z"/>
<path class="st1" d="M53.2,21.4C46,11.7,32.3,9.7,22.6,16.9s-11.7,20.9-4.5,30.6S39,59.2,48.7,52l0,0C58.4,44.8,60.4,31.1,53.2,21.4
	z"/>
<path class="st2" d="M18,21.5l12.3,34.2c1.7,0.4,3.4,0.6,5.1,0.6L21.5,17.7C20.2,18.9,19,20.1,18,21.5z"/>
<path class="st2" d="M40.9,55.8c2.2-0.6,4.4-1.5,6.4-2.7L32.8,12.8c-2.3,0.3-4.5,1-6.6,2L40.9,55.8z"/>
<rect x="51" y="52.3" transform="matrix(0.8021 -0.5972 0.5972 0.8021 -24.4196 43.6308)" class="st0" width="5.2" height="12.7"/>
<path class="st3" d="M54.5,62.7l2.7-2c1.7-1.3,4.1-0.9,5.4,0.8l0,0l32.7,44c1.3,1.7,0.9,4.1-0.8,5.4l-2.7,2
	c-1.7,1.3-4.1,0.9-5.4-0.8l0,0l-32.7-44C52.5,66.3,52.8,63.9,54.5,62.7L54.5,62.7z"/>
<path class="st4" d="M63,74.7l18.8,12.2c1,0.6,1.2,1.9,0.6,2.9l-17.9,27.7c-0.6,1-1.9,1.2-2.9,0.6l0,0l-18.8-12.2
	c-1-0.6-1.2-1.9-0.6-2.9l0,0l17.9-27.7C60.8,74.4,62.1,74.1,63,74.7L63,74.7z"/>
<path class="st5" d="M60.6,73.2l18.8,12.2c1,0.6,1.2,1.9,0.6,2.9l0,0L62.1,116c-0.6,1-1.9,1.2-2.9,0.6l0,0l-18.8-12.2
	c-1-0.6-1.2-1.9-0.6-2.9l0,0l17.9-27.7C58.4,72.8,59.7,72.5,60.6,73.2L60.6,73.2L60.6,73.2z"/>
<rect x="60.8" y="75.9" transform="matrix(0.544 -0.8391 0.8391 0.544 -42.3991 94.2938)" class="st6" width="9.6" height="20.5"/>
<rect x="52" y="86.8" transform="matrix(0.544 -0.8391 0.8391 0.544 -49.853 85.7776)" class="st7" width="3.9" height="3.9"/>
<rect x="56.7" y="89.7" transform="matrix(0.544 -0.8391 0.8391 0.544 -50.1802 90.9876)" class="st7" width="3.9" height="3.9"/>
<rect x="61.3" y="92.8" transform="matrix(0.544 -0.8391 0.8391 0.544 -50.6364 96.2979)" class="st7" width="3.9" height="3.9"/>
<rect x="66" y="95.9" transform="matrix(0.544 -0.8391 0.8391 0.544 -51.0898 101.6526)" class="st7" width="3.9" height="3.9"/>
<rect x="49.2" y="91.3" transform="matrix(0.544 -0.8391 0.8391 0.544 -54.8999 85.4102)" class="st7" width="3.9" height="3.9"/>
<rect x="53.7" y="94.3" transform="matrix(0.544 -0.8391 0.8391 0.544 -55.3624 90.6246)" class="st7" width="3.9" height="3.9"/>
<rect x="58.4" y="97.3" transform="matrix(0.544 -0.8391 0.8391 0.544 -55.7786 95.9232)" class="st7" width="3.9" height="3.9"/>
<rect x="46.2" y="95.9" transform="matrix(0.544 -0.8391 0.8391 0.544 -60.1075 85.0021)" class="st7" width="3.9" height="3.9"/>
<rect x="50.8" y="98.8" transform="matrix(0.544 -0.8391 0.8391 0.544 -60.5119 90.2057)" class="st7" width="3.9" height="3.9"/>
<rect x="55.4" y="101.9" transform="matrix(0.544 -0.8391 0.8391 0.544 -60.9772 95.5157)" class="st7" width="3.9" height="3.9"/>
<rect x="43.2" y="100.3" transform="matrix(0.544 -0.8391 0.8391 0.544 -65.2452 84.4881)" class="st7" width="3.9" height="3.9"/>
<rect x="47.8" y="103.4" transform="matrix(0.544 -0.8391 0.8391 0.544 -65.7196 89.7974)" class="st7" width="3.9" height="3.9"/>
<rect x="52.6" y="106.4" transform="matrix(0.544 -0.8391 0.8391 0.544 -66.0241 95.1483)" class="st7" width="3.9" height="3.9"/>
<rect x="54.7" y="104.8" transform="matrix(0.544 -0.8391 0.8391 0.544 -61.3047 100.7255)" class="st7" width="14.7" height="3.9"/>
<path class="st8" d="M61.9,87.2l0.8-1.3l0.2-0.1l0.1,0.4l-0.7,1.1l-0.4,0.1L61.9,87.2z M62,87.8v-0.2l0.4-0.1l0.4,0.2l0.1,0.3
	l0.3-0.1l0.4,0.2l0.1,0.4h-0.2L62,87.8z M63.8,84.2H64l0.1,0.4l-0.7,1.1L63,85.8l-0.1-0.2L63.8,84.2z M64.4,84.1l1.3,0.8v0.2
	l-0.4,0.1L64.9,85l-0.1-0.3l-0.3,0.1l-0.4-0.2L64,84.2L64.4,84.1z M63.9,88.5l-0.2,0.1l-0.1-0.4l0.7-1.1l0.4-0.1v0.2L63.9,88.5z
	 M65.8,85.5L65,86.8h-0.2l-0.1-0.4l0.7-1.1l0.4-0.1V85.5z"/>
<path class="st9" d="M110.9,161.6H30.1c-5.5,0-10.2-3.9-11.2-9.3l-9.2-48.2h121.7l-9.2,48.2C121.1,157.7,116.4,161.6,110.9,161.6z"
	/>
<path class="st10" d="M37.5,152.7c-5.2,0-9.6-3.7-10.6-8.8l-5.5-28.7"/>
<circle class="st11" cx="44" cy="171.8" r="10.2"/>
<circle class="st12" cx="44" cy="171.8" r="4.1"/>
<circle class="st11" cx="98.5" cy="171.8" r="10.2"/>
<circle class="st12" cx="98.5" cy="171.8" r="4.1"/>
<path class="st8" d="M64.5,89l0.8-1.3l0.2-0.1l0.1,0.4l-0.7,1.1l-0.4,0.1V89z M64.7,89.6v-0.2l0.4-0.1l0.4,0.2l0.1,0.3l0.3-0.1
	l0.4,0.2l0.1,0.4h-0.2L64.7,89.6z M66.5,86h0.2l0.1,0.4l-0.7,1.1l-0.4,0.1l-0.1-0.2L66.5,86z M67.1,85.9l1.3,0.8v0.2L68,87l-0.4-0.2
	l-0.1-0.3l-0.3,0.1l-0.4-0.2L66.7,86L67.1,85.9z M66.5,90.3l-0.2,0.1L66.2,90l0.7-1.1l0.4-0.1V89L66.5,90.3z M68.5,87.3l-0.8,1.3
	h-0.2l-0.1-0.4l0.7-1.1l0.4-0.1V87.3z"/>
<path class="st8" d="M67.1,90.7l0.8-1.3l0.2-0.1l0.1,0.4l-0.7,1.1l-0.4,0.1V90.7z M67.3,91.2V91l0.4-0.1l0.4,0.2l0.1,0.3l0.3-0.1
	l0.4,0.2l0.1,0.4h-0.2L67.3,91.2z M69.1,87.7h0.2l0.1,0.4l-0.7,1.1l-0.4,0.1l-0.1-0.2L69.1,87.7z M69.7,87.5l1.3,0.8v0.2l-0.4,0.1
	l-0.4-0.2v-0.2l-0.3,0.1l-0.4-0.2l-0.1-0.4L69.7,87.5z M69.1,91.9L68.9,92l-0.1-0.4l0.7-1.1l0.4-0.1v0.2L69.1,91.9z M71.1,89
	l-0.9,1.2H70l-0.1-0.4l0.7-1.1l0.4-0.1L71.1,89z"/>
<path class="st8" d="M69.9,92.3l0.8-1.3l0.2-0.1l0.1,0.4l-0.7,1.1l-0.4,0.1V92.3z M70,92.9v-0.2l0.4-0.1l0.4,0.2l0.1,0.3l0.3-0.1
	l0.4,0.2l0.1,0.4h-0.2L70,92.9z M71.9,89.4h0.2l0.1,0.4l-0.7,1.1L71.1,91L71,90.8L71.9,89.4z M72.5,89.2l1.3,0.8v0.2l-0.4,0.1
	L73,90.1l-0.1-0.3l-0.3,0.1l-0.4-0.2l-0.1-0.4L72.5,89.2z M71.9,93.6l-0.2,0.1l-0.1-0.4l0.7-1.1l0.4-0.1v0.2L71.9,93.6z M73.9,90.7
	L73.1,92h-0.2l-0.1-0.4l0.7-1.1l0.4-0.1V90.7z"/>
</svg>
